<svg width="128" height="128" viewBox="0 0 128 128" fill="none" xmlns="http://www.w3.org/2000/svg">
<g clip-path="url(#clip0_449_761)">
<path d="M9.83008 1H118.17V72.83C118.17 102.747 93.9174 127 64.0001 127C34.0828 127 9.83008 102.747 9.83008 72.83V1Z" fill="#FFFFF3"/>
<path fill-rule="evenodd" clip-rule="evenodd" d="M10.6306 4.39156e-05H119.152V2.35018C119.152 9.23944 119.157 15.7784 119.162 22.1627C119.174 38.6494 119.186 54.1053 119.111 71.9021C119.068 82.5552 116.168 92.4448 110.635 101.438C105.186 110.323 97.8949 117.154 88.7992 121.93C83.8007 124.557 78.5073 126.298 72.9687 127.244C68.758 127.973 64.5145 128.148 60.305 127.884C53.4334 127.443 46.8321 125.7 40.5995 122.634C29.6281 117.241 21.2501 109.019 15.4238 98.011C12.44 92.3733 10.4787 86.3589 9.56241 80.0177C9.1391 77.087 8.88379 74.082 8.8625 71.0905L8.86247 71.0841C8.81837 53.7831 8.82627 38.7271 8.83467 22.741C8.83814 16.1347 8.84169 9.36949 8.84169 2.22139L8.84169 0.000141202L10.6306 4.39156e-05ZM11.653 2.81141C11.6529 9.74528 11.6494 16.3215 11.646 22.7467C11.6376 38.7299 11.6297 53.7786 11.6738 71.0737C11.6942 73.9196 11.9374 76.7949 12.3449 79.6157C13.2151 85.6382 15.0759 91.3436 17.9086 96.6959C23.4657 107.195 31.4151 114.987 41.8397 120.111C47.7377 123.012 53.9756 124.66 60.4807 125.078C64.4963 125.33 68.5194 125.161 72.4922 124.474L72.4951 124.473C77.7584 123.574 82.7683 121.923 87.4915 119.441C96.135 114.902 103.052 108.425 108.239 99.9671C113.508 91.4026 116.259 82.0152 116.299 71.8905C116.374 54.1015 116.363 38.6554 116.35 22.1717C116.346 15.9284 116.341 9.53619 116.341 2.81141H11.653Z" fill="#18241C"/>
<path fill-rule="evenodd" clip-rule="evenodd" d="M62.6445 126.046V1.4209H65.4559V126.046H62.6445Z" fill="#18241C"/>
<path fill-rule="evenodd" clip-rule="evenodd" d="M10.3223 57.3557H117.801V60.1671H10.3223V57.3557Z" fill="#18241C"/>
<path fill-rule="evenodd" clip-rule="evenodd" d="M89.5879 44.0379V14.9531H92.3993V44.0379H89.5879Z" fill="#18241C"/>
<path fill-rule="evenodd" clip-rule="evenodd" d="M79.6992 42.6475H102.296V45.4588H79.6992V42.6475Z" fill="#18241C"/>
<path fill-rule="evenodd" clip-rule="evenodd" d="M77.6465 14.9526C77.6465 14.1762 78.2758 13.5469 79.0522 13.5469L102.949 13.5469C103.725 13.5469 104.354 14.1762 104.354 14.9526C104.354 15.7289 103.725 16.3582 102.949 16.3582L79.0522 16.3582C78.2758 16.3582 77.6465 15.7289 77.6465 14.9526Z" fill="#18241C"/>
<path fill-rule="evenodd" clip-rule="evenodd" d="M71.0684 25.9536H87.0196L86.9109 27.4605C86.6116 31.6086 83.2335 34.9448 79.0485 34.9448C74.8566 34.9448 71.5099 31.6029 71.1868 27.4688L71.0684 25.9536ZM74.325 28.765C75.0743 30.7573 76.9305 32.1335 79.0485 32.1335C81.173 32.1335 83.0375 30.7525 83.7796 28.765H74.325Z" fill="#18241C"/>
<path fill-rule="evenodd" clip-rule="evenodd" d="M77.6327 15.1337L80.1928 15.1167L85.5729 26.7683L84.3175 27.348V28.7633H73.7234L72.4395 26.7854L77.6327 15.1337ZM82.0994 25.9519H75.8889L78.9392 19.1081L82.0994 25.9519Z" fill="#18241C"/>
<path fill-rule="evenodd" clip-rule="evenodd" d="M95.2324 25.9534H111.184L111.075 27.4602C110.776 31.6083 107.398 34.9446 103.213 34.9446C99.0207 34.9446 95.674 31.6026 95.3509 27.4686L95.2324 25.9534ZM98.4891 28.7647C99.2384 30.7571 101.095 32.1332 103.213 32.1332C105.337 32.1332 107.202 30.7523 107.944 28.7647H98.4891Z" fill="#18241C"/>
<path fill-rule="evenodd" clip-rule="evenodd" d="M101.808 15.133L104.369 15.116L109.749 26.7676L108.493 27.3473V28.7626H97.8992L96.6152 26.7846L101.808 15.133ZM106.275 25.9512H100.065L103.115 19.1074L106.275 25.9512Z" fill="#18241C"/>
<path fill-rule="evenodd" clip-rule="evenodd" d="M89.4787 77.0142C84.297 77.0142 80.4637 81.1847 80.4637 86.6542C80.4637 92.1197 84.3092 96.2288 89.3838 96.2288C92.6284 96.2288 94.6392 94.9838 96.6051 92.9225L98.6396 94.8628C96.3044 97.3113 93.603 99.0401 89.3838 99.0401C82.5672 99.0401 77.6523 93.4761 77.6523 86.6542C77.6523 79.8362 82.5478 74.2029 89.4787 74.2029C93.6661 74.2029 96.2467 75.7883 98.4943 77.9858L96.529 79.996C94.6653 78.1739 92.755 77.0142 89.4787 77.0142Z" fill="#18241C"/>
<path fill-rule="evenodd" clip-rule="evenodd" d="M37.4865 19.9017C32.3048 19.9017 28.4715 24.0722 28.4715 29.5416C28.4715 35.0072 32.317 39.1162 37.3916 39.1162C40.6362 39.1162 42.6471 37.8712 44.6129 35.81L46.6474 37.7503C44.3122 40.1988 41.6108 41.9276 37.3916 41.9276C30.575 41.9276 25.6602 36.3635 25.6602 29.5416C25.6602 22.7237 30.5556 17.0903 37.4865 17.0903C41.6739 17.0903 44.2545 18.6757 46.5022 20.8732L44.5368 22.8835C42.6731 21.0614 40.7628 19.9017 37.4865 19.9017Z" fill="#18241C"/>
<path d="M24.0781 69.4346H40.4939V90.8154H24.0781V69.4346Z" fill="#FFFFF3"/>
<path fill-rule="evenodd" clip-rule="evenodd" d="M22.6738 69.4347L24.0795 68.0291H40.4953L41.9009 69.4347V90.8156L40.4953 92.2213H24.0795L22.6738 90.8156V69.4347ZM25.4852 70.8404V89.4099H39.0896V70.8404H25.4852Z" fill="#18241C"/>
<path d="M30.8535 76.2153H47.2693V97.5962H30.8535V76.2153Z" fill="#FFFFF3"/>
<path fill-rule="evenodd" clip-rule="evenodd" d="M29.4492 76.2155L30.8549 74.8098H47.2707L48.6763 76.2155V97.5964L47.2707 99.002H30.8549L29.4492 97.5964V76.2155ZM32.2606 77.6212V96.1907H45.865V77.6212H32.2606Z" fill="#18241C"/>
<path d="M37.6387 82.9929H54.0544V104.374H37.6387V82.9929Z" fill="#FFFFF3"/>
<path fill-rule="evenodd" clip-rule="evenodd" d="M36.2344 82.9931L37.6401 81.5874H54.0558L55.4615 82.9931V104.374L54.0558 105.78H37.6401L36.2344 104.374V82.9931ZM39.0457 84.3988V102.968H52.6501V84.3988H39.0457Z" fill="#18241C"/>
</g>
<defs>
<clipPath id="clip0_449_761">
<rect width="128" height="128" fill="white"/>
</clipPath>
</defs>
</svg>
