<svg width="111" height="22" viewBox="0 0 111 22" fill="none" xmlns="http://www.w3.org/2000/svg">
<path d="M99.651 20.215C99.6365 20.2597 99.655 20.3084 99.6955 20.3322C100.4 20.7452 101.666 21.3299 103.25 21.3299C105.178 21.3299 106.902 19.7403 108.136 17.663C109.374 15.5798 110.142 12.9704 110.142 10.8619C110.142 10.0154 110.022 9.27559 109.731 8.74391C109.436 8.20457 108.966 7.8819 108.29 7.8819C107.783 7.8819 107.283 8.08634 106.804 8.42282C106.325 8.75939 105.86 9.23211 105.422 9.77938C104.804 10.551 104.232 11.4773 103.738 12.395L107.377 1.17275C107.394 1.12052 107.366 1.0644 107.314 1.04703L107.026 0.95103C106.985 0.93756 106.941 0.951166 106.915 0.984927C106.799 1.13563 106.69 1.2458 106.557 1.32951C106.424 1.41323 106.261 1.47421 106.031 1.51763C105.565 1.60549 104.85 1.6179 103.61 1.6179C103.566 1.6179 103.527 1.64687 103.514 1.68916L103.37 2.16916C103.361 2.19944 103.367 2.23223 103.386 2.25759C103.405 2.28295 103.434 2.2979 103.466 2.2979C103.908 2.2979 104.248 2.32186 104.505 2.37321C104.763 2.42478 104.926 2.50186 105.025 2.59906C105.12 2.69271 105.165 2.81583 105.165 2.98745C105.165 3.16269 105.116 3.38164 105.027 3.6549L105.027 3.65502L99.651 20.215ZM108.526 11.0539C108.526 12.8957 107.919 15.208 106.959 17.0589C106.48 17.9839 105.915 18.7886 105.298 19.3607C104.681 19.9332 104.02 20.2659 103.346 20.2659C102.364 20.2659 101.771 19.9693 101.4 19.6834L102.6 16.1761C103.138 14.7792 104.028 13.0351 104.986 11.6415C105.465 10.9443 105.959 10.3384 106.431 9.90795C106.907 9.47393 107.345 9.2339 107.714 9.2339C107.871 9.2339 107.993 9.27268 108.092 9.34315C108.192 9.41421 108.274 9.52284 108.339 9.67449C108.472 9.98147 108.526 10.4438 108.526 11.0539Z" fill="#152C48" stroke="#152C48" stroke-width="0.2" stroke-linejoin="round"/>
<path d="M95.1712 15.397C94.2734 17.0011 93.4441 18.1692 92.7112 18.9347C91.974 19.7048 91.3511 20.0499 90.8664 20.0499C90.7276 20.0499 90.6168 19.9972 90.5416 19.8844C90.463 19.7665 90.415 19.5702 90.4381 19.2695L90.4382 19.2684C90.4613 18.9157 90.5809 18.4382 90.7723 17.8628C90.9632 17.2891 91.2231 16.6249 91.5228 15.9011C91.7815 15.2763 92.071 14.6047 92.3705 13.9097C92.7621 13.0009 93.171 12.0521 93.5511 11.1155L93.5513 11.115C93.7192 10.6951 93.8646 10.3198 93.9679 9.98864C94.071 9.65825 94.1344 9.3649 94.1344 9.10986C94.1344 8.79393 94.0524 8.49447 93.8794 8.27155C93.7041 8.0456 93.4406 7.90586 93.0984 7.90586C92.3009 7.90586 91.4901 8.42864 90.765 9.16888C90.0363 9.91272 89.3769 10.8935 88.8817 11.8478C88.8656 11.8788 88.8668 11.9159 88.885 11.9458C88.9031 11.9756 88.9355 11.9939 88.9704 11.9939H89.4744C89.5104 11.9939 89.5437 11.9745 89.5614 11.9432C89.967 11.2274 90.473 10.4838 90.977 9.92054C91.229 9.63881 91.4782 9.4049 91.7118 9.24216C91.9473 9.07811 92.1564 8.99386 92.3304 8.99386C92.4254 8.99386 92.4817 9.01503 92.5176 9.05429C92.5558 9.09613 92.5904 9.17973 92.5904 9.34986C92.5904 9.41538 92.5749 9.51083 92.545 9.63233C92.5154 9.75224 92.4735 9.89133 92.4244 10.0418C92.3612 10.2351 92.2874 10.4432 92.2139 10.6505C92.1729 10.766 92.1321 10.8813 92.0932 10.9936L94.9725 18.4836L94.9725 18.4837C94.9493 18.5473 94.9257 18.6113 94.902 18.6755C94.8285 18.8746 94.7547 19.0744 94.695 19.265C94.6162 19.5166 94.5584 19.7623 94.5584 19.9819C94.5584 20.3669 94.6452 20.7131 94.8689 20.9635C95.0945 21.216 95.4437 21.3539 95.9304 21.3539C96.7816 21.3539 97.5934 20.7406 98.2877 19.8953C98.9859 19.0454 99.5845 17.9378 100.007 16.8996C100.02 16.8687 100.016 16.8337 99.9974 16.806C99.9788 16.7784 99.9477 16.7619 99.9144 16.7619H99.4104C99.3714 16.7619 99.3359 16.7846 99.3196 16.82C98.9011 17.7287 98.4249 18.5849 97.9337 19.2122C97.6881 19.5259 97.4412 19.7791 97.1989 19.9531C96.9562 20.1274 96.7244 20.2179 96.5064 20.2179C96.3333 20.2179 96.2499 20.1701 96.2033 20.106C96.151 20.0342 96.1264 19.9179 96.1264 19.7419C96.1264 19.6011 96.1707 19.3969 96.2335 19.1785C96.2956 18.9628 96.3726 18.7434 96.4326 18.5755L96.433 18.5744L99.961 8.32641C99.9715 8.29585 99.9666 8.2621 99.9478 8.23579C99.9291 8.20948 99.8987 8.19386 99.8664 8.19386H98.1144C98.0617 8.19386 98.0181 8.23478 98.0146 8.28738C97.9558 9.19295 97.5302 10.4633 96.9725 11.7675C96.4163 13.0684 95.734 14.3911 95.1712 15.397ZM95.1712 15.397L95.2584 15.4459L95.1712 15.397Z" fill="#152C48" stroke="#152C48" stroke-width="0.2" stroke-linejoin="round"/>
<path d="M90.1122 0.95103C90.0746 0.938508 90.0332 0.949332 90.0065 0.978631C89.7822 1.2254 89.5318 1.38375 89.0525 1.48193C88.5657 1.58164 87.8492 1.6179 86.6965 1.6179C86.6524 1.6179 86.6134 1.64687 86.6008 1.68916L86.4568 2.16916C86.4477 2.19944 86.4534 2.23223 86.4723 2.25759C86.4912 2.28295 86.5209 2.2979 86.5525 2.2979C86.994 2.2979 87.3344 2.32186 87.5912 2.37321C87.8491 2.42479 88.011 2.50182 88.1078 2.59861C88.2009 2.69167 88.2447 2.81418 88.2413 2.98569C88.2379 3.16083 88.1851 3.37979 88.0901 3.65305L88.0901 3.65304L88.0893 3.65526L83.3853 18.2713L83.3852 18.2716C83.2186 18.7954 83.0445 19.3633 83.0445 19.8139C83.0445 20.1876 83.1316 20.5278 83.3554 20.775C83.5809 21.0241 83.9298 21.1619 84.4165 21.1619C85.2793 21.1619 86.097 20.5492 86.7947 19.7035C87.496 18.8535 88.0946 17.7458 88.5172 16.7076C88.5297 16.6768 88.5261 16.6417 88.5075 16.6141C88.4889 16.5865 88.4578 16.5699 88.4245 16.5699H87.9205C87.8815 16.5699 87.846 16.5926 87.8297 16.6281C87.4112 17.5369 86.9349 18.3992 86.4435 19.0326C86.1978 19.3493 85.9509 19.6055 85.7085 19.7818C85.4658 19.9582 85.2341 20.0499 85.0165 20.0499C84.8471 20.0499 84.7632 19.9986 84.715 19.9283C84.6609 19.8495 84.6365 19.7256 84.6365 19.5499C84.6365 19.4057 84.6704 19.1987 84.721 18.9783C84.7712 18.7597 84.8363 18.5348 84.8954 18.3575L84.8957 18.3567L90.4637 1.17272C90.4806 1.1205 90.4522 1.06439 90.4002 1.04703L90.1122 0.95103Z" fill="#152C48" stroke="#152C48" stroke-width="0.2" stroke-linejoin="round"/>
<path d="M83.6657 2.91037L83.6657 2.91035L83.6645 2.90862C83.2978 2.38296 82.8785 1.97445 82.3509 1.69824C81.8234 1.4221 81.1947 1.28184 80.4145 1.28184C77.5683 1.28184 75.0579 3.34419 73.2656 6.10945C71.4714 8.87768 70.3785 12.3763 70.3785 15.3018C70.3785 17.0308 70.7652 18.5547 71.5865 19.6489C72.411 20.7471 73.6658 21.4018 75.3745 21.4018C77.3633 21.4018 78.9181 20.5583 80.2048 19.2109C81.4888 17.8664 82.5083 16.0178 83.4334 13.9995C83.4476 13.9685 83.4451 13.9325 83.4267 13.9038C83.4083 13.8752 83.3766 13.8578 83.3425 13.8578H82.7185C82.6798 13.8578 82.6446 13.8801 82.6281 13.9151C81.7907 15.6857 80.8126 17.2462 79.6842 18.3628C78.5566 19.4785 77.2844 20.1458 75.8545 20.1458C74.6614 20.1458 73.75 19.6623 73.1335 18.8102C72.5141 17.9541 72.1865 16.7173 72.1865 15.2058C72.1865 12.789 73.0451 9.55963 74.5138 6.93568C75.9858 4.30579 78.048 2.32184 80.4385 2.32184C81.1065 2.32184 81.6137 2.47984 81.9947 2.76059C82.3758 3.04143 82.6401 3.45214 82.8094 3.97466C83.1497 5.02507 83.0993 6.50497 82.8595 8.20789C82.8555 8.23656 82.864 8.26557 82.883 8.28743C82.902 8.30929 82.9296 8.32184 82.9585 8.32184H83.4625C83.5077 8.32184 83.5473 8.29153 83.5591 8.24791L85.3351 1.67191C85.3423 1.64519 85.3381 1.61668 85.3235 1.59316C85.3089 1.56963 85.2853 1.5532 85.2581 1.54778L84.7781 1.45178C84.7306 1.44228 84.6832 1.46819 84.6654 1.51327L84.1377 2.8567C84.1376 2.85677 84.1376 2.85684 84.1376 2.85691C84.0908 2.9739 84.0482 3.05581 84.0088 3.10834C83.9687 3.16173 83.9424 3.17116 83.9308 3.17252C83.9198 3.17382 83.893 3.17119 83.8435 3.12855C83.7945 3.08636 83.7359 3.01568 83.6657 2.91037Z" fill="#152C48" stroke="#152C48" stroke-width="0.2" stroke-linejoin="round"/>
<path d="M64.9911 0.95103C64.9535 0.938508 64.9121 0.949332 64.8854 0.978631C64.842 1.0264 64.7597 1.07581 64.63 1.12174C64.5025 1.1669 64.3394 1.20524 64.1455 1.2373C63.7578 1.3014 63.2584 1.33857 62.6985 1.35938C61.8745 1.38999 60.928 1.38495 60.0255 1.38014C59.701 1.37841 59.3823 1.37672 59.0769 1.37672C59.0327 1.37672 58.9938 1.40568 58.9811 1.44798L58.8371 1.92798C58.828 1.95826 58.8338 1.99105 58.8527 2.01641C58.8715 2.04177 58.9013 2.05672 58.9329 2.05672C59.7851 2.05672 60.7544 2.58266 61.4677 3.25598C61.8228 3.59125 62.1086 3.95773 62.2816 4.30409C62.456 4.65317 62.5084 4.96606 62.4253 5.20497L62.4245 5.20748L58.2642 18.2716L58.2641 18.2716C58.0975 18.7954 57.9234 19.3633 57.9234 19.8139C57.9234 20.1876 58.0105 20.5278 58.2343 20.775C58.4598 21.0241 58.8087 21.1619 59.2954 21.1619C60.1582 21.1619 60.9759 20.5492 61.6736 19.7035C62.3749 18.8535 62.9735 17.7458 63.3961 16.7076C63.4086 16.6768 63.405 16.6417 63.3864 16.6141C63.3678 16.5865 63.3367 16.5699 63.3034 16.5699H62.7994C62.7604 16.5699 62.7249 16.5926 62.7086 16.6281C62.2901 17.5369 61.8138 18.3992 61.3224 19.0326C61.0767 19.3493 60.8298 19.6055 60.5874 19.7818C60.3447 19.9582 60.113 20.0499 59.8954 20.0499C59.726 20.0499 59.6421 19.9986 59.5939 19.9283C59.5398 19.8495 59.5154 19.7256 59.5154 19.5499C59.5154 19.4057 59.5493 19.1987 59.5999 18.9783C59.6501 18.7597 59.7152 18.5348 59.7743 18.3575L59.7746 18.3567L65.3426 1.17272C65.3595 1.1205 65.3311 1.06439 65.2791 1.04703L64.9911 0.95103Z" fill="#152C48" stroke="#152C48" stroke-width="0.2" stroke-linejoin="round"/>
<path d="M57.6015 15.7794C57.5625 15.7794 57.5271 15.8021 57.5107 15.8375C56.9371 17.0803 56.2882 18.1442 55.5988 18.8958C54.9078 19.6491 54.1886 20.0754 53.4735 20.0754C52.9984 20.0754 52.6085 19.8902 52.3347 19.5353C52.0585 19.1774 51.8935 18.6376 51.8935 17.9194C51.8935 17.2742 52.0061 16.4673 52.2108 15.6313C53.9103 15.3429 55.5681 14.5501 56.8075 13.5172C58.0601 12.4734 58.9015 11.17 58.9015 9.8794C58.9015 9.2949 58.7209 8.79462 58.3852 8.43968C58.0488 8.08407 57.5651 7.8834 56.9775 7.8834C56.1124 7.8834 55.2596 8.28146 54.4718 8.926C53.6834 9.571 52.9528 10.4685 52.3293 11.483C51.0835 13.5102 50.2535 16.0241 50.2535 17.9674C50.2535 19.0016 50.4967 19.8419 50.9527 20.4259C51.411 21.013 52.0771 21.3314 52.8975 21.3314C53.9911 21.3314 55.0058 20.7533 55.8958 19.7934C56.7861 18.8333 57.5598 17.4831 58.1746 15.9159C58.1867 15.8851 58.1828 15.8504 58.1641 15.8231C58.1455 15.7957 58.1146 15.7794 58.0815 15.7794H57.6015ZM52.4411 14.7354C52.8599 13.3176 53.4904 11.8614 54.2347 10.748C54.6211 10.1698 55.0358 9.68762 55.4643 9.3509C55.8929 9.01411 56.3292 8.8274 56.7615 8.8274C57.0718 8.8274 57.2524 8.93049 57.3619 9.09729C57.4774 9.27306 57.5255 9.53641 57.5255 9.8794C57.5255 11.0302 56.9152 12.097 55.948 12.9577C55.0196 13.7839 53.7692 14.4133 52.4411 14.7354Z" fill="#152C48" stroke="#152C48" stroke-width="0.2" stroke-linejoin="round"/>
<path d="M47.455 15.9746L47.4549 15.9746L47.4565 15.9772C47.9577 16.7886 48.2576 17.441 48.2576 18.2526C48.2576 18.8854 48.0993 19.4311 47.7933 19.8164C47.4897 20.1987 47.0335 20.4326 46.4136 20.4326C45.8455 20.4326 45.4321 20.2768 45.1204 20.0043C44.8064 19.7299 44.5859 19.329 44.4208 18.8219C44.3265 18.5275 44.2504 18.2899 44.1453 18.1289C44.0909 18.0456 44.0257 17.9776 43.9419 17.9314C43.8579 17.8851 43.7624 17.8646 43.6536 17.8646C43.4253 17.8646 43.2177 17.9457 43.0675 18.1063C42.9177 18.2666 42.8336 18.4969 42.8336 18.7806C42.8336 20.0277 44.1677 21.3286 46.1016 21.3286C48.1502 21.3286 49.6816 19.8185 49.6816 17.6526C49.6816 16.6419 49.3253 16.0235 48.4719 14.542C48.4471 14.4991 48.422 14.4554 48.3964 14.411C48.3963 14.4109 48.3963 14.4108 48.3963 14.4107L47.7005 13.1872L47.7006 13.1872L47.6991 13.1848C47.1509 12.2791 46.8256 11.4338 46.8256 10.6686C46.8256 10.0279 47.0117 9.53872 47.3231 9.21044C47.6341 8.88263 48.0802 8.70462 48.6216 8.70462C49.1056 8.70462 49.4222 8.83635 49.6495 9.04181C49.88 9.25002 50.029 9.54282 50.1594 9.88619C50.2307 10.1001 50.3068 10.306 50.4192 10.4581C50.5369 10.6173 50.6969 10.7206 50.9256 10.7206C51.3408 10.7206 51.7456 10.3878 51.7456 9.82862C51.7456 9.4076 51.4921 8.90802 51.0389 8.51691C50.5827 8.12318 49.9175 7.83262 49.0776 7.83262C47.0613 7.83262 45.4016 9.28673 45.4016 11.3406C45.4016 12.4282 45.8495 13.2668 46.7355 14.7275L47.455 15.9746Z" fill="#152C48" stroke="#152C48" stroke-width="0.2" stroke-linejoin="round"/>
<path d="M34.5301 21.0194C34.5712 21.0194 34.6081 20.9943 34.6231 20.9561C36.3857 16.4838 37.9305 13.5332 39.1729 11.7026C39.7942 10.787 40.3378 10.1546 40.7929 9.75218C41.2517 9.34639 41.6061 9.1874 41.8501 9.1874C42.0264 9.1874 42.1352 9.247 42.2066 9.35986C42.2841 9.48229 42.3261 9.68064 42.3261 9.9754C42.3261 10.2826 42.2226 10.7377 42.0398 11.3108C41.858 11.881 41.6011 12.5577 41.3013 13.3041C41.0585 13.9087 40.7872 14.5599 40.5055 15.2358C40.0937 16.2242 39.6598 17.2655 39.2609 18.2912L39.2607 18.2917C39.1533 18.5542 39.0441 18.8211 38.9619 19.0768C38.8797 19.3327 38.8221 19.5842 38.8221 19.8154C38.8221 20.1891 38.9092 20.5293 39.133 20.7765C39.3585 21.0256 39.7074 21.1634 40.1941 21.1634C41.035 21.1634 41.6887 20.8954 42.2376 20.3596C42.7819 19.8282 43.2185 19.0379 43.6399 18.0024C43.6525 17.9716 43.6488 17.9365 43.6303 17.9089C43.6117 17.8813 43.5806 17.8647 43.5473 17.8647H43.0433C43.0039 17.8647 42.9681 17.8879 42.952 17.9239C42.5441 18.8356 42.2287 19.3652 41.9017 19.6688C41.5831 19.9645 41.2469 20.0514 40.7701 20.0514C40.6007 20.0514 40.5167 20.0001 40.4686 19.9298C40.4145 19.851 40.3901 19.7271 40.3901 19.5514C40.3901 19.4127 40.4393 19.2161 40.5084 18.9998C40.5489 18.873 40.5928 18.7492 40.6348 18.6308C40.6648 18.5463 40.6938 18.4645 40.7199 18.3863C41.0369 17.6148 41.4003 16.7982 41.7678 15.9753C41.7853 15.936 41.8029 15.8967 41.8204 15.8574C42.1709 15.0727 42.5232 14.2839 42.8394 13.5269C43.1714 12.7322 43.4646 11.9705 43.6749 11.283C43.8847 10.5969 44.0141 9.97819 44.0141 9.4714C44.0141 8.99881 43.8897 8.60024 43.6376 8.31869C43.3841 8.03552 43.0127 7.8834 42.5461 7.8834C41.7107 7.8834 40.8213 8.38392 39.818 9.56258C38.8351 10.7171 37.7298 12.5374 36.4448 15.2258L37.9361 11.1135L37.9364 11.1127C37.9528 11.0662 37.9691 11.0203 37.9852 10.9748C38.1099 10.6222 38.2242 10.2991 38.3101 10.0066C38.4069 9.67666 38.4701 9.37777 38.4701 9.1114C38.4701 8.80667 38.3877 8.51317 38.2147 8.29351C38.0394 8.07103 37.7762 7.9314 37.4341 7.9314C36.6365 7.9314 35.8258 8.45418 35.1007 9.19442C34.372 9.93826 33.7126 10.9191 33.2174 11.8733C33.2013 11.9043 33.2025 11.9415 33.2207 11.9713C33.2388 12.0012 33.2712 12.0194 33.3061 12.0194H33.8101C33.8461 12.0194 33.8794 12 33.8971 11.9687C34.3027 11.253 34.8087 10.5093 35.3126 9.94608C35.5647 9.66435 35.8139 9.43044 36.0475 9.2677C36.283 9.10365 36.4921 9.0194 36.6661 9.0194C36.7611 9.0194 36.8174 9.04057 36.8533 9.07983C36.8915 9.12167 36.9261 9.20527 36.9261 9.3754C36.9261 9.43565 36.9118 9.53006 36.8839 9.65336C36.8565 9.7748 36.8174 9.91793 36.7713 10.0728C36.6789 10.3826 36.5596 10.7348 36.4516 11.0467L36.4515 11.0469L33.0675 20.8869C33.057 20.9174 33.0619 20.9512 33.0807 20.9775C33.0995 21.0038 33.1298 21.0194 33.1621 21.0194H34.5301Z" fill="#152C48" stroke="#152C48" stroke-width="0.2" stroke-linejoin="round"/>
<path d="M28.6731 15.397C27.7752 17.0011 26.946 18.1692 26.2131 18.9347C25.4759 19.7048 24.853 20.0499 24.3683 20.0499C24.2295 20.0499 24.1187 19.9972 24.0435 19.8844C23.9649 19.7665 23.9169 19.5702 23.94 19.2695L23.9401 19.2684C23.9632 18.9157 24.0828 18.4382 24.2742 17.8628C24.4651 17.2891 24.725 16.6249 25.0247 15.9011C25.2834 15.2763 25.5728 14.6047 25.8724 13.9097C26.264 13.0009 26.6729 12.0521 27.053 11.1155L27.0532 11.115C27.2211 10.6951 27.3665 10.3198 27.4698 9.98864C27.5728 9.65825 27.6363 9.3649 27.6363 9.10986C27.6363 8.79393 27.5543 8.49447 27.3813 8.27155C27.206 8.0456 26.9425 7.90586 26.6003 7.90586C25.8027 7.90586 24.992 8.42864 24.2669 9.16888C23.5382 9.91272 22.8788 10.8935 22.3836 11.8478L22.3835 11.8478L22.3818 11.8515L21.9562 12.7603L21.9554 12.7599L21.9512 12.7733L20.9044 16.1707C20.8889 16.221 20.9151 16.2748 20.9643 16.2936C21.0136 16.3124 21.0689 16.2897 21.0909 16.2419L23.0654 11.9395C23.4707 11.2249 23.9758 10.4828 24.4788 9.92054C24.7309 9.63881 24.9801 9.4049 25.2137 9.24216C25.4492 9.07811 25.6583 8.99386 25.8323 8.99386C25.9273 8.99386 25.9836 9.01503 26.0195 9.05429C26.0577 9.09613 26.0923 9.17973 26.0923 9.34986C26.0923 9.41538 26.0768 9.51083 26.0468 9.63233C26.0173 9.75224 25.9754 9.89133 25.9263 10.0418C25.8631 10.2352 25.7893 10.4432 25.7158 10.6505C25.6748 10.766 25.634 10.8813 25.595 10.9936L28.4744 18.4836L28.4743 18.4837C28.4512 18.5473 28.4276 18.6113 28.4039 18.6754C28.3304 18.8746 28.2566 19.0744 28.1969 19.265C28.1181 19.5166 28.0603 19.7623 28.0603 19.9819C28.0603 20.3669 28.147 20.7131 28.3708 20.9635C28.5964 21.216 28.9456 21.3539 29.4323 21.3539C30.2835 21.3539 31.0953 20.7406 31.7896 19.8953C32.4878 19.0454 33.0864 17.9378 33.509 16.8996C33.5215 16.8687 33.5179 16.8337 33.4993 16.806C33.4807 16.7784 33.4496 16.7619 33.4163 16.7619H32.9123C32.8733 16.7619 32.8378 16.7846 32.8215 16.82C32.403 17.7287 31.9268 18.5849 31.4356 19.2122C31.19 19.5259 30.9431 19.7791 30.7007 19.9531C30.4581 20.1274 30.2263 20.2179 30.0083 20.2179C29.8352 20.2179 29.7518 20.1701 29.7052 20.106C29.6529 20.0342 29.6283 19.9179 29.6283 19.7419C29.6283 19.6011 29.6726 19.3969 29.7354 19.1785C29.7975 18.9628 29.8745 18.7434 29.9345 18.5755L29.9349 18.5744L33.4629 8.32641C33.4734 8.29585 33.4685 8.2621 33.4497 8.23579C33.431 8.20948 33.4006 8.19386 33.3683 8.19386H31.6163C31.5636 8.19386 31.52 8.23478 31.5165 8.28738C31.4577 9.19295 31.032 10.4633 30.4744 11.7675C29.9181 13.0684 29.2359 14.3911 28.6731 15.397ZM28.6731 15.397L28.7603 15.4459L28.6731 15.397Z" fill="#152C48" stroke="#152C48" stroke-width="0.2" stroke-linejoin="round"/>
<path d="M12.4684 17.582C12.4684 18.7114 12.7232 19.6471 13.2143 20.3029C13.7082 20.9625 14.4345 21.33 15.3524 21.33C17.0095 21.33 18.7097 20.0488 19.9883 18.2244C21.2702 16.3953 22.1484 13.9936 22.1484 11.702C22.1484 10.5717 21.8811 9.61269 21.3788 8.93354C20.8741 8.25127 20.1363 7.85801 19.2164 7.85801C17.5702 7.85801 15.8821 9.15843 14.613 11.0033C13.3403 12.8534 12.4684 15.2788 12.4684 17.582ZM20.5564 11.63C20.5564 13.6381 19.8843 15.8173 18.9373 17.4938C18.464 18.3318 17.9243 19.04 17.3698 19.5374C16.8137 20.0363 16.2532 20.314 15.7364 20.314C15.1368 20.314 14.7253 20.0517 14.4578 19.5927C14.1858 19.126 14.0604 18.4509 14.0604 17.63C14.0604 15.6336 14.7207 13.436 15.6559 11.7383C16.1234 10.8897 16.6572 10.1703 17.2073 9.66436C17.7591 9.15692 18.3163 8.87401 18.8324 8.87401C19.4306 8.87401 19.855 9.14724 20.1352 9.62278C20.4193 10.1048 20.5564 10.7983 20.5564 11.63Z" fill="#152C48" stroke="#152C48" stroke-width="0.2" stroke-linejoin="round"/>
<path d="M14.1442 2.91037L14.1443 2.91035L14.143 2.90862C13.7763 2.38296 13.357 1.97445 12.8294 1.69824C12.3019 1.4221 11.6732 1.28184 10.893 1.28184C8.04679 1.28184 5.53641 3.34419 3.74412 6.10945C1.94989 8.87768 0.857031 12.3763 0.857031 15.3018C0.857031 17.0308 1.24368 18.5547 2.06506 19.6489C2.88952 20.7471 4.14429 21.4018 5.85303 21.4018C7.8418 21.4018 9.39661 20.5583 10.6834 19.2109C11.9673 17.8664 12.9869 16.0178 13.9119 13.9995C13.9261 13.9685 13.9236 13.9325 13.9052 13.9038C13.8868 13.8752 13.8551 13.8578 13.821 13.8578H13.197C13.1584 13.8578 13.1232 13.8801 13.1066 13.9151C12.2692 15.6857 11.2912 17.2462 10.1627 18.3628C9.03509 19.4785 7.76296 20.1458 6.33303 20.1458C5.13991 20.1458 4.22855 19.6623 3.61205 18.8102C2.99257 17.9541 2.66503 16.7173 2.66503 15.2058C2.66503 12.789 3.5236 9.55963 4.99229 6.93568C6.46431 4.30579 8.52653 2.32184 10.917 2.32184C11.585 2.32184 12.0922 2.47984 12.4732 2.76059C12.8543 3.04143 13.1186 3.45214 13.2879 3.97466C13.6283 5.02507 13.5779 6.50497 13.338 8.20789C13.334 8.23656 13.3426 8.26557 13.3616 8.28743C13.3805 8.30929 13.4081 8.32184 13.437 8.32184H13.941C13.9862 8.32184 14.0258 8.29153 14.0376 8.24791L15.8136 1.67191C15.8208 1.64519 15.8166 1.61668 15.802 1.59316C15.7875 1.56963 15.7638 1.5532 15.7366 1.54778L15.2566 1.45178C15.2091 1.44228 15.1617 1.46819 15.144 1.51327L14.6162 2.8567C14.6162 2.85677 14.6161 2.85684 14.6161 2.85691C14.5693 2.9739 14.5267 3.05581 14.4873 3.10834C14.4472 3.16173 14.4209 3.17116 14.4093 3.17252C14.3983 3.17382 14.3716 3.17119 14.322 3.12855C14.273 3.08636 14.2144 3.01568 14.1442 2.91037Z" fill="#152C48" stroke="#152C48" stroke-width="0.2" stroke-linejoin="round"/>
</svg>
