<svg width="110" height="21" viewBox="0 0 110 21" fill="none" xmlns="http://www.w3.org/2000/svg">
<path fill-rule="evenodd" clip-rule="evenodd" d="M59.1105 17.5401L58.9305 17.4801L59.1205 17.5401L64.6805 0.36006C64.7105 0.26006 64.6605 0.14006 64.5506 0.11006L64.2605 0.0100602C64.1805 -0.0199398 64.1005 0.0100602 64.0506 0.0700602C64.0305 0.0900602 63.9805 0.13006 63.8805 0.17006C63.7905 0.21006 63.6605 0.24006 63.5105 0.27006C63.2105 0.33006 62.8105 0.37006 62.3605 0.40006C61.4505 0.45006 60.3305 0.45006 59.2605 0.44006H58.3105C58.2205 0.44006 58.1405 0.50006 58.1205 0.58006L57.9805 1.06006C57.9605 1.12006 57.9805 1.19006 58.0105 1.24006C58.0505 1.29006 58.1105 1.32006 58.1705 1.32006C58.9905 1.32006 59.9305 1.83006 60.6405 2.49006C60.9905 2.82006 61.2705 3.18006 61.4305 3.51006C61.6005 3.85006 61.6405 4.13006 61.5705 4.33006L61.7605 4.40006L61.5705 4.34006L57.4105 17.4001C57.2405 17.9201 57.0605 18.5001 57.0605 18.9701C57.0605 19.3601 57.1505 19.7301 57.4005 20.0001C57.6505 20.2801 58.0305 20.4201 58.5405 20.4201C59.4505 20.4201 60.2905 19.7801 61.0005 18.9301C61.7105 18.0701 62.3105 16.9501 62.7405 15.9101C62.7705 15.8501 62.7605 15.7801 62.7205 15.7201C62.6805 15.6601 62.6205 15.6301 62.5505 15.6301H62.0505C61.9705 15.6301 61.9005 15.6801 61.8705 15.7501C61.4505 16.6601 60.9805 17.5101 60.5005 18.1401C60.2605 18.4501 60.0205 18.7001 59.7905 18.8701C59.5605 19.0401 59.3505 19.1201 59.1605 19.1201C59.0105 19.1201 58.9705 19.0801 58.9405 19.0401C58.9005 18.9901 58.8805 18.8901 58.8805 18.7201C58.8805 18.5901 58.9105 18.3901 58.9605 18.1701C59.0105 17.9501 59.0705 17.7301 59.1305 17.5601L59.1105 17.5401ZM32.83 15.91C32.87 15.97 32.88 16.04 32.85 16.1C32.43 17.14 31.83 18.2601 31.12 19.1201C30.43 19.9801 29.59 20.6201 28.69 20.6201C28.18 20.6201 27.8 20.4801 27.55 20.2001C27.3 19.92 27.21 19.55 27.21 19.15C27.21 18.95 27.26 18.72 27.32 18.5C27.3667 18.3467 27.4222 18.1934 27.4777 18.0401L27.4778 18.04C27.5056 17.9634 27.5333 17.8867 27.56 17.81C27.57 17.7801 27.5825 17.7476 27.595 17.7152L27.595 17.715L27.595 17.7149C27.6075 17.6825 27.62 17.65 27.63 17.6201L28.77 14.49C27.69 16.46 26.74 17.9001 25.89 18.8701C24.86 20.0501 23.93 20.6001 23.05 20.6001C22.56 20.6001 22.15 20.44 21.87 20.14C21.59 19.84 21.45 19.42 21.45 18.9401C21.45 18.15 21.77 17.09 22.21 15.93C22.6509 14.7837 23.2262 13.5222 23.7854 12.2959L23.82 12.22C24.15 11.5 24.47 10.8 24.76 10.13C24.78 10.0751 24.8 10.0176 24.82 9.96006C24.84 9.90255 24.86 9.84505 24.88 9.79005L25.04 9.86005H25.07L24.88 9.79005C24.98 9.53005 25.07 9.26005 25.14 9.03005C25.21 8.79005 25.25 8.61005 25.25 8.52005C25.25 8.36005 25.21 8.30005 25.2 8.29005C25.19 8.28005 25.17 8.26005 25.09 8.26005C24.95 8.26005 24.76 8.33005 24.53 8.49005C24.3 8.64005 24.06 8.87005 23.81 9.15005C23.31 9.71005 22.81 10.44 22.41 11.15L20.7 14.87C20.09 16.43 19.17 17.86 18.11 18.89C17.05 19.92 15.82 20.59 14.61 20.59C13.66 20.59 12.9 20.2101 12.39 19.5201C11.88 18.84 11.62 17.88 11.62 16.74C11.62 16.6613 11.6273 16.5801 11.6347 16.4976L11.6347 16.4976C11.6423 16.4126 11.65 16.3263 11.65 16.24C10.07 18.8 8.07 20.66 5.1 20.66C3.36 20.66 2.07 20 1.23 18.8701C0.39 17.75 0 16.2 0 14.46C0 11.51 1.1 7.99005 2.9 5.21005C4.7 2.43005 7.24 0.340049 10.18 0.300049C10.97 0.300049 11.62 0.440049 12.16 0.730049C12.71 1.02005 13.14 1.44005 13.51 1.98005C13.58 2.08005 13.63 2.15005 13.67 2.18005L13.68 2.17005C13.7122 2.13786 13.7379 2.07977 13.7728 2.00099L13.7728 2.00098L13.7728 2.00089C13.7813 1.9818 13.7903 1.9615 13.8 1.94005L14.33 0.600049C14.37 0.510049 14.46 0.460049 14.56 0.480049L15.04 0.580049C15.09 0.590049 15.14 0.620049 15.17 0.670049C15.19 0.720049 15.2 0.780049 15.19 0.830049L13.41 7.41005C13.39 7.50005 13.31 7.56005 13.22 7.56005H12.72C12.66 7.56005 12.61 7.53005 12.57 7.49005C12.52 7.45005 12.52 7.39005 12.52 7.33005C12.76 5.63005 12.8 4.17005 12.47 3.14005C12.3 2.64005 12.05 2.25005 11.69 1.98005C11.33 1.71005 10.84 1.56005 10.19 1.56005C7.85 1.56005 5.82 3.50005 4.35 6.12005C2.89 8.73005 2.04 11.94 2.04 14.34C2.04 15.84 2.37 17.06 2.97 17.89C3.57 18.71 4.45 19.1801 5.61 19.1801C7.01 19.1801 8.25 18.5301 9.37 17.4301C10.48 16.32 11.46 14.78 12.29 13.01C12.3 12.99 12.32 12.97 12.34 12.95C12.93 11.32 13.84 9.83005 14.9 8.73005C15.98 7.62005 17.24 6.89005 18.49 6.89005C19.44 6.89005 20.21 7.30005 20.73 8.01005C21.25 8.71005 21.52 9.70005 21.52 10.84V11.06L21.57 10.94C22.07 9.98005 22.73 8.99005 23.47 8.24005C24.2 7.50005 25.03 6.95005 25.87 6.95005C26.24 6.95005 26.54 7.10005 26.73 7.35005C26.92 7.60005 27.01 7.92005 27.01 8.25005C27.01 8.52005 26.94 8.83005 26.84 9.16005C26.73 9.49005 26.59 9.87005 26.42 10.29L26.23 10.22L26.42 10.3C26.0845 11.121 25.7257 11.9576 25.3779 12.7685L25.24 13.09C25.1662 13.2633 25.0928 13.435 25.0202 13.6049C24.6111 14.5621 24.2273 15.4602 23.93 16.25C23.58 17.18 23.35 17.9301 23.32 18.42L23.12 18.41L23.32 18.4301C23.3 18.72 23.35 18.89 23.41 18.98C23.46 19.06 23.54 19.1001 23.65 19.1001C24.09 19.1001 24.69 18.7901 25.42 18.0201C26.14 17.2601 26.96 16.1 27.86 14.5C28.43 13.5 29.11 12.18 29.66 10.88C30.21 9.57005 30.63 8.32005 30.69 7.43005C30.7 7.32005 30.78 7.24005 30.89 7.24005H32.64C32.7 7.24005 32.76 7.27005 32.8 7.32005C32.84 7.37005 32.85 7.44005 32.83 7.50005L29.3 17.75L29.11 17.6901L29.29 17.7601L29.2673 17.8241L29.2673 17.8242L29.2673 17.8243C29.2108 17.9835 29.1427 18.1756 29.09 18.3601C29.03 18.58 28.99 18.77 28.99 18.9C28.99 19.08 29.02 19.17 29.05 19.21C29.07 19.24 29.12 19.2801 29.27 19.2801C29.46 19.2801 29.67 19.2001 29.9 19.0301C30.13 18.8601 30.37 18.62 30.61 18.31C31.09 17.69 31.56 16.85 31.98 15.94C32.01 15.87 32.08 15.82 32.16 15.82H32.66C32.73 15.82 32.79 15.85 32.83 15.91ZM14.98 19.3701C15.46 19.3701 16 19.1101 16.55 18.6201V18.63C17.1 18.14 17.63 17.4401 18.1 16.6101C19.04 14.9501 19.71 12.79 19.71 10.8C19.71 9.97005 19.57 9.30005 19.3 8.84005C19.03 8.39005 18.64 8.14005 18.08 8.14005C17.6 8.14005 17.06 8.40005 16.52 8.90005C15.98 9.40005 15.45 10.11 14.99 10.95C14.06 12.63 13.41 14.8101 13.41 16.7901C13.41 17.6001 13.53 18.2601 13.79 18.7001C14.04 19.1301 14.42 19.3701 14.98 19.3701ZM82.7791 13.1704C82.7984 13.1152 82.7876 13.0536 82.7608 13.0001C82.7208 12.9401 82.6608 12.9101 82.5908 12.9101H81.9708C81.8908 12.9101 81.8208 12.9501 81.7908 13.0201C80.9608 14.7901 79.9808 16.3301 78.8708 17.4401C77.7508 18.5401 76.5108 19.1901 75.1108 19.1901C73.9508 19.1901 73.0708 18.7201 72.4708 17.9001C71.8708 17.0701 71.5408 15.8501 71.5408 14.3501C71.5408 11.9501 72.3908 8.74007 73.8508 6.13007C75.3208 3.51007 77.3508 1.57007 79.6908 1.57007C80.3408 1.57007 80.8308 1.72007 81.1908 1.99007C81.5508 2.26007 81.8008 2.65007 81.9708 3.15007C82.3008 4.18007 82.2608 5.64007 82.0208 7.34007C82.0208 7.40007 82.0208 7.46007 82.0708 7.50007C82.1108 7.54007 82.1608 7.57007 82.2208 7.57007H82.7208C82.8108 7.57007 82.8908 7.51007 82.9108 7.42007L84.6908 0.840068L84.6728 0.83534C84.6784 0.788594 84.6685 0.735266 84.6505 0.690098C84.624 0.645924 84.5818 0.617361 84.5379 0.604408L84.5408 0.590068L84.0608 0.490068C83.9708 0.470068 83.8708 0.520068 83.8308 0.610068L83.3008 1.95007C83.291 1.97155 83.282 1.99189 83.2736 2.01101C83.2387 2.08979 83.213 2.14788 83.1808 2.18007L83.1708 2.19007C83.1308 2.16007 83.0808 2.09007 83.0108 1.99007C82.6408 1.45007 82.2108 1.03007 81.6608 0.750068C81.1208 0.460068 80.4708 0.320068 79.6808 0.320068C76.7808 0.320068 74.2508 2.42007 72.4508 5.19007C70.6508 7.97007 69.5508 11.4901 69.5508 14.4401C69.5508 16.1801 69.9408 17.7301 70.7808 18.8501C71.6208 19.9801 72.9108 20.6401 74.6508 20.6401C76.6708 20.6401 78.2508 19.7801 79.5508 18.4201C80.8508 17.0601 81.8708 15.2001 82.8008 13.1801L82.7791 13.1704ZM107.53 6.93988C108.25 6.93988 108.75 7.27988 109.06 7.84988H109.08C109.38 8.40988 109.5 9.16988 109.5 10.0199C109.5 12.1499 108.73 14.7699 107.48 16.8699C106.24 18.9599 104.49 20.5899 102.51 20.5899C100.9 20.5899 99.6101 19.9999 98.9001 19.5799C98.8101 19.5399 98.7801 19.4399 98.8101 19.3499L104.19 2.78988C104.28 2.51988 104.32 2.29988 104.32 2.14988C104.32 1.99988 104.28 1.89988 104.21 1.82988C104.13 1.74988 103.99 1.67988 103.74 1.62988C103.49 1.57988 103.16 1.55988 102.72 1.55988C102.66 1.55988 102.6 1.52988 102.56 1.47988C102.53 1.42988 102.51 1.35988 102.53 1.29988L102.67 0.819885C102.69 0.739885 102.77 0.679885 102.86 0.679885C104.1 0.679885 104.81 0.669885 105.26 0.579885C105.48 0.539885 105.63 0.489885 105.75 0.409885C105.87 0.339885 105.97 0.239885 106.08 0.0898846C106.13 0.0198846 106.22 -0.0101154 106.3 0.0198846L106.59 0.119885C106.7 0.149885 106.75 0.269885 106.72 0.369885L103.38 10.6599C103.75 10.0299 104.16 9.41988 104.59 8.87988C105.03 8.31988 105.5 7.83988 105.99 7.49988C106.48 7.15988 107 6.93988 107.53 6.93988ZM104.32 10.8499C103.36 12.2399 102.47 13.9799 101.94 15.3699V15.3499L100.77 18.7799C101.13 19.0499 101.68 19.3099 102.6 19.3099C103.24 19.3099 103.87 18.9899 104.48 18.4299C105.08 17.8699 105.64 17.0799 106.12 16.1599C107.08 14.3199 107.68 12.0199 107.68 10.1999C107.68 9.58988 107.62 9.14988 107.5 8.85988C107.44 8.71988 107.37 8.62988 107.29 8.56988C107.21 8.50988 107.11 8.47988 106.97 8.47988C106.64 8.47988 106.22 8.69988 105.75 9.12988C105.29 9.55988 104.8 10.1599 104.32 10.8499ZM87.2402 2.77394V2.78002L87.3556 2.81646L87.4197 2.84006L87.2297 2.78006L82.5297 17.4001C82.3597 17.9201 82.1797 18.5001 82.1797 18.9701C82.1797 19.3601 82.2697 19.7301 82.5197 20.0001C82.7697 20.2801 83.1497 20.4201 83.6597 20.4201C84.5697 20.4201 85.4097 19.7801 86.1197 18.9301C86.8297 18.0701 87.4297 16.9501 87.8597 15.9101C87.8897 15.8501 87.8797 15.7801 87.8397 15.7201C87.7997 15.6601 87.7397 15.6301 87.6697 15.6301V15.6201H87.1697C87.0897 15.6201 87.0197 15.6701 86.9897 15.7401C86.5697 16.6501 86.0997 17.5001 85.6197 18.1301C85.3797 18.4401 85.1397 18.6901 84.9097 18.8601C84.6797 19.0301 84.4697 19.1101 84.2797 19.1101C84.1297 19.1101 84.0897 19.0701 84.0597 19.0301C84.0197 18.9801 83.9997 18.8801 83.9997 18.7101C83.9997 18.5801 84.0297 18.3801 84.0797 18.1601C84.1297 17.9401 84.1897 17.7201 84.2497 17.5501L84.0697 17.4901L84.2597 17.5501L89.7997 0.36006C89.8297 0.26006 89.7797 0.14006 89.6697 0.11006L89.3797 0.0100602C89.2997 -0.0199398 89.2197 0.0100602 89.1697 0.0700602C88.9597 0.30006 88.7297 0.45006 88.2697 0.54006C87.7897 0.64006 87.0897 0.67006 85.9297 0.67006C85.8397 0.67006 85.7597 0.73006 85.7397 0.81006L85.5997 1.29006C85.5797 1.35006 85.5997 1.42006 85.6297 1.47006C85.6697 1.52006 85.7297 1.55006 85.7897 1.55006C86.2297 1.55006 86.5597 1.57006 86.8097 1.62006C87.0597 1.67006 87.1997 1.74006 87.2797 1.82006C87.3497 1.89006 87.3897 1.98006 87.3797 2.13006C87.3797 2.29006 87.3297 2.50006 87.2297 2.77006L87.2402 2.77394ZM47.8595 7.95988C48.3195 7.95988 48.6195 8.08988 48.8195 8.26988C49.0295 8.45988 49.1695 8.73988 49.2995 9.07988C49.3695 9.28988 49.4495 9.50988 49.5695 9.66988C49.6995 9.84988 49.8895 9.96988 50.1595 9.96988C50.6295 9.96988 51.0795 9.58988 51.0795 8.97988C51.0795 8.51988 50.8095 7.99988 50.3395 7.58988C49.8695 7.17988 49.1795 6.87988 48.3095 6.87988C46.2495 6.87988 44.5294 8.36988 44.5294 10.4899C44.5294 11.6099 44.9895 12.4699 45.8795 13.9299L46.5994 15.1799C47.0994 15.9899 47.3895 16.6199 47.3895 17.3999C47.3895 18.0199 47.2395 18.5399 46.9495 18.8999C46.6695 19.2599 46.2395 19.4799 45.6495 19.4799C45.0995 19.4799 44.7094 19.3299 44.4194 19.0799C44.1194 18.8199 43.9095 18.4399 43.7495 17.9399C43.6595 17.6499 43.5795 17.3999 43.4594 17.2199C43.3995 17.1299 43.3195 17.0499 43.2195 16.9899C43.1195 16.9299 43.0095 16.9099 42.8795 16.9099H42.7895H42.7794H42.2794C42.1995 16.9099 42.1295 16.9599 42.0994 17.0299C41.6894 17.9399 41.3795 18.4499 41.0695 18.7399C40.7795 19.0099 40.4695 19.0999 40.0095 19.0999C39.8595 19.0999 39.8195 19.0599 39.7895 19.0199C39.7495 18.9699 39.7295 18.8699 39.7295 18.6999C39.7295 18.6099 39.7595 18.4699 39.7995 18.3099C39.8494 18.15 39.9094 17.98 39.9694 17.8101L39.9695 17.8099C39.9995 17.7299 40.0295 17.6499 40.0495 17.5699C40.3795 16.7599 40.7595 15.9099 41.1495 15.0399L41.3096 14.6785C41.7967 13.5799 42.28 12.4902 42.6495 11.4899C43.0595 10.3899 43.3494 9.37988 43.3494 8.61988C43.3494 8.12988 43.2195 7.70988 42.9495 7.39988C42.6695 7.08988 42.2695 6.92988 41.7794 6.92988C40.8995 6.92988 39.9895 7.45988 38.9795 8.63988C38.1995 9.55988 37.3295 10.9099 36.3695 12.7599L37.2695 10.2899L37.3195 10.1499C37.4495 9.77988 37.5695 9.42988 37.6595 9.11988C37.7495 8.80988 37.8095 8.51988 37.8095 8.24988C37.8095 7.92988 37.7195 7.60988 37.5294 7.36988C37.3395 7.11988 37.0395 6.96988 36.6694 6.96988C35.8295 6.96988 34.9995 7.51988 34.2695 8.25988C33.5295 9.00988 32.8695 9.99988 32.3695 10.9599C32.3395 11.0199 32.3395 11.0999 32.3695 11.1599C32.3995 11.2199 32.4695 11.2599 32.5395 11.2599H33.0395C33.1095 11.2599 33.1795 11.2199 33.2095 11.1599C33.6095 10.4499 34.1195 9.70988 34.6095 9.14988C34.8595 8.86988 35.0995 8.63988 35.3295 8.48988C35.5595 8.32988 35.7495 8.25988 35.8895 8.25988C35.9695 8.25988 35.9895 8.27988 35.9995 8.28988C36.0095 8.29988 36.0495 8.35988 36.0495 8.51988C36.0495 8.56988 36.0395 8.64988 36.0095 8.77988C35.9908 8.85432 35.9684 8.93646 35.9445 9.02391L35.9442 9.02485L35.9441 9.02526C35.9296 9.07836 35.9145 9.13341 35.8995 9.18988C35.8095 9.49988 35.6895 9.84988 35.5795 10.1599L32.1995 19.9999C32.1795 20.0599 32.1895 20.1299 32.2295 20.1799C32.2695 20.2299 32.3295 20.2599 32.3895 20.2599H33.7595C33.8395 20.2599 33.9195 20.2099 33.9495 20.1299C35.7095 15.6599 37.2495 12.7199 38.4895 10.8999C39.1095 9.98988 39.6495 9.35988 40.0895 8.96988C40.5395 8.56988 40.8695 8.42988 41.0795 8.42988C41.2295 8.42988 41.2994 8.47988 41.3494 8.55988C41.4095 8.65988 41.4495 8.82988 41.4495 9.11988C41.4495 9.31988 41.3995 9.59988 41.3095 9.94988C41.2195 10.2999 41.0795 10.7099 40.9095 11.1599C40.5795 12.0699 40.1195 13.1699 39.6295 14.3399C39.2195 15.3299 38.7895 16.3699 38.3895 17.3899C38.2795 17.6499 38.1695 17.9199 38.0895 18.1799C38.0095 18.4399 37.9495 18.6999 37.9495 18.9499C37.9495 19.3399 38.0395 19.7099 38.2895 19.9799C38.5395 20.2599 38.9195 20.3999 39.4295 20.3999C40.0995 20.3999 40.6695 20.2299 41.1495 19.8899C41.5395 19.6199 41.8595 19.2399 42.1595 18.7799C42.6095 19.7599 43.7895 20.5699 45.3295 20.5699C47.4395 20.5699 49.0095 19.0099 49.0095 16.7899C49.0095 15.7651 48.6475 15.1309 47.8399 13.7158L47.7794 13.6099L47.7195 13.4999L47.0195 12.2799C46.4795 11.3799 46.1595 10.5499 46.1595 9.80988C46.1595 9.18988 46.3395 8.72988 46.6295 8.41988C46.9195 8.11988 47.3395 7.94988 47.8595 7.94988V7.95988ZM57.4904 14.92C57.4504 14.87 57.3904 14.83 57.3204 14.83H56.8404C56.7604 14.83 56.6904 14.88 56.6604 14.95C56.0904 16.19 55.4504 17.24 54.7704 17.98C54.0904 18.72 53.3904 19.13 52.7204 19.13C52.2704 19.13 51.9104 18.96 51.6604 18.63C51.4004 18.2999 51.2404 17.78 51.2404 17.08C51.2404 16.46 51.3504 15.68 51.5404 14.87C53.2304 14.57 54.8804 13.78 56.1104 12.76C57.3704 11.71 58.2404 10.38 58.2404 9.04995C58.2404 8.44995 58.0504 7.91995 57.7004 7.53995C57.3404 7.15995 56.8304 6.94995 56.2204 6.94995C55.3204 6.94995 54.4504 7.35995 53.6504 8.01995C52.8504 8.66995 52.1104 9.57995 51.4904 10.6C50.2404 12.64 49.4004 15.17 49.4004 17.14C49.4004 18.19 49.6504 19.05 50.1204 19.66C50.6004 20.27 51.2904 20.6 52.1404 20.6C53.2704 20.6 54.3104 20 55.2104 19.03C56.1104 18.06 56.8904 16.7 57.5104 15.12C57.5304 15.06 57.5304 14.99 57.4904 14.93V14.92ZM56.0101 8.07999C56.2839 8.08204 56.4314 8.17145 56.5204 8.29995C56.6204 8.44995 56.6704 8.68995 56.6704 9.02995C56.6704 10.14 56.0804 11.19 55.1304 12.03C54.2604 12.8 53.0904 13.39 51.8504 13.72C52.2704 12.37 52.8604 11 53.5704 9.94995C53.9504 9.37995 54.3604 8.89995 54.7804 8.57995C55.1969 8.25272 55.6035 8.08282 56.0101 8.07999ZM99.1492 15.81C99.2192 15.81 99.2792 15.84 99.3192 15.9L99.3292 15.88C99.3692 15.94 99.3792 16.01 99.3492 16.07C98.9292 17.11 98.3292 18.23 97.6192 19.09C96.9292 19.95 96.0892 20.59 95.1892 20.59C94.6792 20.59 94.2992 20.45 94.0492 20.17C93.7992 19.89 93.7092 19.52 93.7092 19.12C93.7092 18.92 93.7592 18.69 93.8192 18.47C93.8659 18.3166 93.9215 18.1632 93.977 18.0099C94.0048 17.9332 94.0326 17.8566 94.0592 17.78C94.0692 17.75 94.0817 17.7175 94.0942 17.685C94.1067 17.6525 94.1192 17.62 94.1292 17.59L95.2692 14.46C94.1892 16.43 93.2392 17.87 92.3892 18.84C91.3592 20.02 90.4292 20.57 89.5492 20.57C89.0592 20.57 88.6492 20.41 88.3692 20.11C88.0892 19.81 87.9492 19.39 87.9492 18.91C87.9492 18.12 88.2692 17.06 88.7092 15.9C89.1262 14.825 89.6634 13.6384 90.1936 12.4676C90.2355 12.3749 90.2774 12.2823 90.3192 12.19C90.6492 11.47 90.9692 10.76 91.2592 10.1C91.2859 10.0333 91.3125 9.95779 91.3392 9.88226C91.3522 9.84547 91.3652 9.80869 91.3781 9.77292L91.3692 9.76995C91.4692 9.50995 91.5592 9.23995 91.6292 9.00995C91.6992 8.76995 91.7392 8.58995 91.7392 8.49995C91.7392 8.33995 91.6992 8.27995 91.6892 8.26995C91.6792 8.25995 91.6592 8.23995 91.5792 8.23995C91.4392 8.23995 91.2492 8.30995 91.0192 8.46995C90.7892 8.61995 90.5492 8.84995 90.2992 9.12995C89.8092 9.68995 89.2992 10.43 88.8992 11.14C88.8692 11.2 88.7992 11.24 88.7292 11.24H88.2292C88.1592 11.24 88.0892 11.2 88.0592 11.14C88.0292 11.08 88.0292 11 88.0592 10.94C88.5592 9.97995 89.2192 8.98995 89.9592 8.23995C90.6892 7.49995 91.5192 6.94995 92.3592 6.94995C92.7292 6.94995 93.0292 7.09995 93.2192 7.34995C93.4092 7.59995 93.4992 7.91995 93.4992 8.24995C93.4992 8.51995 93.4292 8.82995 93.3292 9.15995C93.2192 9.48995 93.0792 9.86995 92.9092 10.29L92.7192 10.22L92.8992 10.29C92.5919 11.05 92.2651 11.8101 91.945 12.5544C91.8692 12.7305 91.7939 12.9058 91.7192 13.08C91.6454 13.2533 91.572 13.425 91.4994 13.5949C91.0903 14.5521 90.7065 15.4501 90.4092 16.24C90.0592 17.17 89.8292 17.92 89.7992 18.41L89.5992 18.4L89.7992 18.42C89.7792 18.71 89.8292 18.88 89.8892 18.97C89.9392 19.05 90.0192 19.09 90.1292 19.09C90.5692 19.09 91.1692 18.78 91.8992 18.01C92.6192 17.25 93.4392 16.09 94.3392 14.49C94.9092 13.49 95.5892 12.17 96.1392 10.87C96.6892 9.55995 97.1092 8.30995 97.1692 7.41995C97.1792 7.30995 97.2592 7.22995 97.3692 7.22995H99.1192C99.1792 7.22995 99.2392 7.25995 99.2792 7.30995C99.3192 7.35995 99.3292 7.42995 99.3092 7.48995L95.7792 17.74L95.5992 17.68L95.7792 17.75C95.7719 17.7706 95.7644 17.792 95.7565 17.814C95.7001 17.9733 95.6319 18.1655 95.5792 18.35C95.5192 18.57 95.4792 18.76 95.4792 18.89C95.4792 19.07 95.5092 19.16 95.5392 19.2C95.5592 19.23 95.6092 19.27 95.7592 19.27C95.9492 19.27 96.1592 19.19 96.3892 19.02C96.6192 18.85 96.8592 18.61 97.0992 18.2999C97.5792 17.68 98.0492 16.84 98.4692 15.93C98.4992 15.86 98.5692 15.81 98.6492 15.81H99.1492Z" fill="#213929"/>
</svg>
